# xmcd
#
# Track frame offsets: 
#        150
#        4112
#        22794
#        40547
#        58420
#        78850
#        97435
#        118517
#        137025
#        156850
#        158397
#        178902
#
# Disc length: 2654 seconds
#
# Revision: 8
# Processed by: cddbd v1.5.2PL0 Copyright (c) Steve Scherf et al.
# Submitted via: ExactAudioCopy v0.99pb5
#
DISCID=8f0a5c0c
DTITLE=박정현 - Piece
DYEAR=1900
DGENRE=Korea-Pop
TTITLE0=Intro
TTITLE1=나의 하루
TTITLE2=P.S.I Love You
TTITLE3=2geTHer
TTITLE4=반전
TTITLE5=The Player (Featuring Players)
TTITLE6=오랜만에 (Acoustic Version)
TTITLE7=요즘넌...
TTITLE8=사랑보다 깊은상처 (Duet With 임재범)
TTITLE9=Interlude
TTITLE10=다시받아주겠니?
TTITLE11=오랜만에 (R&B Version)
EXTD=
EXTT0=
EXTT1=
EXTT2=
EXTT3=
EXTT4=
EXTT5=
EXTT6=
EXTT7=
EXTT8=
EXTT9=
EXTT10=
EXTT11=
PLAYORDER=
